<?xml version="1.0" encoding="UTF-8" standalone="no"?>
<svg
   width="512"
   height="512"
   viewBox="0 0 512 512"
   version="1.1"
   id="svg8"
   inkscape:version="1.3.2 (091e20e, 2023-11-25)"
   sodipodi:docname="logo.svg"
   xml:space="preserve"
   xmlns:inkscape="http://www.inkscape.org/namespaces/inkscape"
   xmlns:sodipodi="http://sodipodi.sourceforge.net/DTD/sodipodi-0.dtd"
   xmlns="http://www.w3.org/2000/svg"
   xmlns:svg="http://www.w3.org/2000/svg"
   xmlns:rdf="http://www.w3.org/1999/02/22-rdf-syntax-ns#"
   xmlns:cc="http://creativecommons.org/ns#"
   xmlns:dc="http://purl.org/dc/elements/1.1/"><defs
     id="defs2"><filter
       inkscape:collect="always"
       style="color-interpolation-filters:sRGB"
       id="filter40"
       x="-0.0069762072"
       y="-0.0081389084"
       width="1.0139524"
       height="1.0162778"><feGaussianBlur
         inkscape:collect="always"
         stdDeviation="1.3022254"
         id="feGaussianBlur40" /></filter><clipPath
       clipPathUnits="userSpaceOnUse"
       id="clipPath99"><path
         id="path99"
         style="font-variation-settings:normal;opacity:1;fill:#000000;fill-opacity:1;stroke:none;stroke-width:8;stroke-linecap:butt;stroke-linejoin:miter;stroke-miterlimit:4;stroke-dasharray:none;stroke-dashoffset:0;stroke-opacity:1"
         d="M 16,4 C 9.2828247,4 4,9.2828247 4,16 v 128 c 0,6.71717 5.2828247,12 12,12 h 112 c 6.71717,0 12,-5.28283 12,-12 V 16 C 140,9.2828247 134.71717,4 128,4 Z m 144,0 c -6.71717,0 -12,5.2828245 -12,12 v 128 c 0,6.71717 5.28283,12 12,12 6.71717,0 12,-5.28283 12,-12 V 16 C 172,9.2828245 166.71717,4 160,4 Z m 32,0 c -6.71717,0 -12,5.2828245 -12,12 v 128 c 0,6.71717 5.28283,12 12,12 h 48 c 6.71717,0 12,-5.28283 12,-12 V 16 C 252,9.2828245 246.71717,4 240,4 Z m 80,0 c -6.71717,0 -12,5.2828245 -12,12 v 128 c 0,6.71717 5.28283,12 12,12 h 112 c 6.71717,0 12,-5.28283 12,-12 V 16 C 396,9.2828245 390.71717,4 384,4 Z m 144,0 c -6.71717,0 -12,5.2828245 -12,12 v 128 c 0,6.71717 5.28283,12 12,12 h 80 c 6.71717,0 12,-5.28283 12,-12 V 16 C 508,9.2828245 502.71717,4 496,4 Z M 144,155.86133 c -1.17282,1.57583 -2.56284,2.96585 -4.13867,4.13867 4.90632,3.65154 8.13867,9.44133 8.13867,16 v 80 c 0,6.55867 -3.23235,12.34846 -8.13867,16 4.90632,3.65154 8.13867,9.44133 8.13867,16 v 80 c 0,6.55867 -3.23235,12.34846 -8.13867,16 1.57583,1.17282 2.96585,2.56284 4.13867,4.13867 C 147.65154,383.23235 153.44133,380 160,380 h 80 c 6.55867,0 12.34846,3.23235 16,8.13867 C 259.65154,383.23235 265.44133,380 272,380 h 48 c 6.55867,0 12.34846,3.23235 16,8.13867 3.65154,-4.90632 9.44133,-8.13867 16,-8.13867 6.55867,0 12.34846,3.23235 16,8.13867 1.17282,-1.57583 2.56284,-2.96585 4.13867,-4.13867 C 367.23235,380.34846 364,374.55867 364,368 v -80 c 0,-6.55867 3.23235,-12.34846 8.13867,-16 C 367.23235,268.34846 364,262.55867 364,256 v -79.80664 c 0,-4.60623 1.63722,-8.80483 4.27344,-12.19336 H 272 c -6.55867,0 -12.34846,-3.23235 -16,-8.13867 C 252.34846,160.76765 246.55867,164 240,164 h -48 c -6.55867,0 -12.34846,-3.23235 -16,-8.13867 -3.65154,4.90632 -9.44133,8.13867 -16,8.13867 -6.55867,0 -12.34846,-3.23235 -16,-8.13867 z m 256,0 c -0.0858,0.11528 -0.18524,0.21866 -0.27344,0.33203 h 0.54688 C 400.18524,156.07999 400.0858,155.97661 400,155.86133 Z M 16,164 c -6.7171753,0 -12,5.28283 -12,12 v 80 c 0,6.71717 5.2828247,12 12,12 h 112 c 6.71717,0 12,-5.28283 12,-12 v -80 c 0,-6.71717 -5.28283,-12 -12,-12 z m 368,0.19336 c -6.71717,0 -12,5.28283 -12,12 V 256 c 0,6.71717 5.28283,12 12,12 h 112 c 6.71717,0 12,-5.28283 12,-12 v -79.80664 c 0,-6.71717 -5.28283,-12 -12,-12 z M 16,276 c -6.7171753,0 -12,5.28283 -12,12 v 80 c 0,6.71717 5.2828247,12 12,12 h 112 c 6.71717,0 12,-5.28283 12,-12 v -80 c 0,-6.71717 -5.28283,-12 -12,-12 z m 368,0 c -6.71717,0 -12,5.28283 -12,12 v 80 c 0,6.71717 5.28283,12 12,12 h 112 c 6.71717,0 12,-5.28283 12,-12 v -80 c 0,-6.71717 -5.28283,-12 -12,-12 z M 16,388 c -6.7171753,0 -12,5.28283 -12,12 v 96 c 0,6.71717 5.2828247,12 12,12 h 112 c 6.71717,0 12,-5.28283 12,-12 v -96 c 0,-6.71717 -5.28283,-12 -12,-12 z m 144,0 c -6.71717,0 -12,5.28283 -12,12 v 96 c 0,6.71717 5.28283,12 12,12 h 80 c 6.71717,0 12,-5.28283 12,-12 v -96 c 0,-6.71717 -5.28283,-12 -12,-12 z m 112,0 c -6.71717,0 -12,5.28283 -12,12 v 96 c 0,6.71717 5.28283,12 12,12 h 48 c 6.71717,0 12,-5.28283 12,-12 v -96 c 0,-6.71717 -5.28283,-12 -12,-12 z m 80,0 c -6.71717,0 -12,5.28283 -12,12 v 96 c 0,6.71717 5.28283,12 12,12 6.71717,0 12,-5.28283 12,-12 v -96 c 0,-6.71717 -5.28283,-12 -12,-12 z m 32,0 c -6.71717,0 -12,5.28283 -12,12 v 96 c 0,6.71717 5.28283,12 12,12 h 112 c 6.71717,0 12,-5.28283 12,-12 v -96 c 0,-6.71717 -5.28283,-12 -12,-12 z"
         sodipodi:nodetypes="sssssssssssssssssssssssssssssssssssssssssssccsscssccsscsscsccsscsscscsscscccccsssssssssssssssssssssssssssssssssssssssssssssssssssssssssssssssssssssssssssssss" /></clipPath></defs><sodipodi:namedview
     id="base"
     pagecolor="#ffffff"
     bordercolor="#666666"
     borderopacity="1.0"
     inkscape:pageopacity="0.0"
     inkscape:pageshadow="2"
     inkscape:zoom="1.1954539"
     inkscape:cx="194.06855"
     inkscape:cy="403.19414"
     inkscape:document-units="px"
     inkscape:current-layer="g40"
     inkscape:document-rotation="0"
     showgrid="true"
     inkscape:pagecheckerboard="true"
     inkscape:window-width="1440"
     inkscape:window-height="847"
     inkscape:window-x="0"
     inkscape:window-y="25"
     inkscape:window-maximized="0"
     inkscape:showpageshadow="0"
     inkscape:deskcolor="#d1d1d1"><inkscape:grid
       id="grid1"
       units="px"
       originx="0"
       originy="0"
       spacingx="16"
       spacingy="16"
       empcolor="#0099e5"
       empopacity="0.30196078"
       color="#0099e5"
       opacity="0.14901961"
       empspacing="4"
       dotted="false"
       gridanglex="30"
       gridanglez="30"
       visible="true" /></sodipodi:namedview><metadata
     id="metadata5"><rdf:RDF><cc:Work
         rdf:about=""><dc:format>image/svg+xml</dc:format><dc:type
           rdf:resource="http://purl.org/dc/dcmitype/StillImage" /></cc:Work></rdf:RDF></metadata><g
     inkscape:label="Calque 1"
     inkscape:groupmode="layer"
     id="layer1"><g
       id="g10"><g
         id="g38"
         clip-path="url(#clipPath99)"><path
           style="color:#000000;fill:#fa9474;-inkscape-stroke:none"
           d="m 16,0 h 112 c 8.864,0 16,7.136 16,16 v 128 c 0,8.864 -7.136,16 -16,16 H 16 C 7.136,160 0,152.864 0,144 V 16 C 0,7.136 7.136,0 16,0 Z"
           id="path98" /><path
           style="color:#000000;fill:#fa9474;-inkscape-stroke:none"
           d="m 416,0 h 80 c 8.864,0 16,7.136 16,16 v 128 c 0,8.864 -7.136,16 -16,16 h -80 c -8.864,0 -16,-7.136 -16,-16 V 16 c 0,-8.864 7.136,-16 16,-16 z"
           id="path96" /><path
           style="color:#000000;fill:#078cb7;-inkscape-stroke:none"
           d="m 192,0 h 48 c 8.864,0 16,7.136 16,16 v 128 c 0,8.864 -7.136,16 -16,16 h -48 c -8.864,0 -16,-7.136 -16,-16 V 16 c 0,-8.864 7.136,-16 16,-16 z"
           id="path94" /><path
           style="color:#000000;fill:#078cb7;-inkscape-stroke:none"
           d="m 16,160 h 112 c 8.864,0 16,7.136 16,16 v 80 c 0,8.864 -7.136,16 -16,16 H 16 C 7.136,272 0,264.864 0,256 v -80 c 0,-8.864 7.136,-16 16,-16 z"
           id="path92" /><path
           style="color:#000000;fill:#078cb7;-inkscape-stroke:none"
           d="m 384,384 h 112 c 8.864,0 16,7.136 16,16 v 96 c 0,8.864 -7.136,16 -16,16 H 384 c -8.864,0 -16,-7.136 -16,-16 v -96 c 0,-8.864 7.136,-16 16,-16 z"
           id="path90" /><path
           style="color:#000000;fill:#eab08d;-inkscape-stroke:none"
           d="m 160,384 h 80 c 8.864,0 16,7.136 16,16 v 96 c 0,8.864 -7.136,16 -16,16 h -80 c -8.864,0 -16,-7.136 -16,-16 v -96 c 0,-8.864 7.136,-16 16,-16 z"
           id="path88" /><path
           style="color:#000000;fill:#eab08d;-inkscape-stroke:none"
           d="m 352,384 c 8.864,0 16,7.136 16,16 v 96 c 0,8.864 -7.136,16 -16,16 -8.864,0 -16,-7.136 -16,-16 v -96 c 0,-8.864 7.136,-16 16,-16 z"
           id="path86" /><path
           style="color:#000000;fill:#eab08d;-inkscape-stroke:none"
           d="m 384,272 h 112 c 8.864,0 16,7.136 16,16 v 80 c 0,8.864 -7.136,16 -16,16 H 384 c -8.864,0 -16,-7.136 -16,-16 v -80 c 0,-8.864 7.136,-16 16,-16 z"
           id="path84" /><path
           style="color:#000000;fill:#e2725b;-inkscape-stroke:none"
           d="m 384,160.1925 h 112 c 8.864,0 16,7.136 16,16 v 79.80751 c 0,8.864 -7.136,16 -16,16 H 384 c -8.864,0 -16,-7.136 -16,-16 V 176.1925 c 0,-8.864 7.136,-16 16,-16 z"
           id="path82" /><path
           style="color:#000000;fill:#eab08d;-inkscape-stroke:none"
           d="m 160,0 c 8.864,0 16,7.136 16,16 v 128 c 0,8.864 -7.136,16 -16,16 -8.864,0 -16,-7.136 -16,-16 V 16 c 0,-8.864 7.136,-16 16,-16 z"
           id="path80" /><path
           style="color:#000000;fill:#e2725b;-inkscape-stroke:none"
           d="m 272,384 h 48 c 8.864,0 16,7.136 16,16 v 96 c 0,8.864 -7.136,16 -16,16 h -48 c -8.864,0 -16,-7.136 -16,-16 v -96 c 0,-8.864 7.136,-16 16,-16 z"
           id="path78" /><path
           style="color:#000000;fill:#a5bca7;-inkscape-stroke:none"
           d="m 16,384 h 112 c 8.864,0 16,7.136 16,16 v 96 c 0,8.864 -7.136,16 -16,16 H 16 C 7.136,512 0,504.864 0,496 v -96 c 0,-8.864 7.136,-16 16,-16 z"
           id="path76" /><path
           style="color:#000000;fill:#5eccb4;-inkscape-stroke:none"
           d="m 16,272 h 112 c 8.864,0 16,7.136 16,16 v 80 c 0,8.864 -7.136,16 -16,16 H 16 C 7.136,384 0,376.864 0,368 v -80 c 0,-8.864 7.136,-16 16,-16 z"
           id="path74" /><path
           style="color:#000000;fill:#5eccb4;-inkscape-stroke:none"
           d="m 272,0 h 112 c 8.864,0 16,7.136 16,16 v 128 c 0,8.864 -7.136,16 -16,16 H 272 c -8.864,0 -16,-7.136 -16,-16 V 16 c 0,-8.864 7.136,-16 16,-16 z"
           id="path72" /></g><rect
         style="font-variation-settings:normal;opacity:1;vector-effect:none;fill:#000000;fill-opacity:0.16428572;stroke:none;stroke-width:1;stroke-linecap:butt;stroke-linejoin:miter;stroke-miterlimit:4;stroke-dasharray:none;stroke-dashoffset:0;stroke-opacity:1;-inkscape-stroke:none;stop-color:#000000;stop-opacity:1;filter:url(#filter40)"
         id="rect40"
         width="448"
         height="384"
         x="32"
         y="96"
         ry="64" /><rect
         style="font-variation-settings:normal;opacity:1;vector-effect:none;fill:#fbf5e0;fill-opacity:1;stroke:none;stroke-width:1;stroke-linecap:butt;stroke-linejoin:miter;stroke-miterlimit:4;stroke-dasharray:none;stroke-dashoffset:0;stroke-opacity:1;-inkscape-stroke:none;stop-color:#000000;stop-opacity:1"
         id="rect39"
         width="416"
         height="384"
         x="48"
         y="64"
         ry="64" /><g
         id="g40"
         transform="translate(-18.502089,-15.799162)"><path
           style="fill:#0e9cd0;stroke:none"
           d="m 165.09233,375.50529 c -6.89139,-1.63112 -7.31872,-9.8314 -0.805,-15.44748 C 166.2819,358.3381 179.04037,346 178.8241,346 c -0.065,0 5.04999,-5.15428 11.36661,-11.45396 l 11.48478,-11.45396 2.34444,2.93285 c 1.28944,1.61307 3.61245,4.13194 5.16225,5.59749 1.5498,1.46556 2.81654,2.88131 2.81498,3.14611 -0.002,0.26481 -8.95509,9.4276 -19.89672,20.36175 -22.12978,22.11465 -21.53952,21.66936 -27.00811,20.37501 z M 284,286.80641 c -10.62491,-2.35596 -14.9622,-12.13917 -9.90083,-22.33234 5.14831,-10.36829 20.59618,-21.09538 32.07221,-22.27114 3.62614,-0.37151 1.1623,1.67474 20.98268,-17.4264 5.72224,-5.51459 10.78474,-10.17947 11.25,-10.36639 0.46527,-0.18692 8.72094,-0.35651 18.34594,-0.37687 16.54619,-0.035 17.58882,-0.0912 19.12957,-1.03057 4.85831,-2.96215 4.83853,-9.58777 -0.0394,-13.20673 -1.28585,-0.95396 -2.18747,-1.05832 -10.25,-1.1864 -4.86208,-0.0772 -9.13863,-0.24553 -9.50344,-0.374 -0.39646,-0.13961 6.09722,-6.92235 16.14107,-16.85958 l 16.80437,-16.62599 -0.0161,-2.39106 c -0.0352,-5.24041 -3.03817,-8.37008 -8.00714,-8.34503 -3.61637,0.0182 -3.38378,-0.16946 -20.77154,16.76147 -7.89343,7.68604 -14.58403,13.97462 -14.86801,13.97462 -0.33696,0 -0.47991,-2.62824 -0.41151,-7.56604 0.11626,-8.39195 -0.23137,-9.89687 -2.85595,-12.36386 -3.41398,-3.20899 -9.14456,-2.40494 -12.19314,1.71079 -0.81837,1.10484 -0.91967,2.7586 -1.08078,17.64298 l -0.17778,16.42388 -15.34674,15.32612 C 301.079,228.13193 297.8589,231.09741 297.47584,230.5 c -0.26449,-0.4125 -0.98601,-1.5622 -1.60337,-2.55489 -4.77447,-7.67714 -13.23711,-16.26691 -22.80835,-23.15101 l -2.0242,-1.4559 3.55269,-3.94093 c 1.95399,-2.16752 8.78809,-9.28747 15.18689,-15.82213 46.50165,-47.48889 74.60652,-64.03419 106.88821,-62.92495 21.2044,0.72861 26.53491,7.08435 25.66384,30.59981 -1.27966,34.54558 -26.65874,68.37646 -83.14197,110.83014 -4.92795,3.70392 -10.75533,7.94025 -12.94974,9.41406 -2.19441,1.47382 -4.06484,2.86555 -4.15651,3.09273 -0.0917,0.22719 -0.38793,0.41307 -0.65836,0.41307 -0.27043,0 -1.20793,0.53852 -2.08333,1.19671 -1.62028,1.21824 -12.95649,7.05245 -16.59138,8.53879 -5.81475,2.37771 -13.52582,3.22937 -18.75026,2.07091 z M 169,265.43248 c -23.34987,-9.86064 -23,-9.68308 -23,-11.67282 0,-1.01787 1.85411,-3.25966 2.69596,-3.25966 0.20983,0 3.68283,-1.43848 7.71777,-3.19662 9.45984,-4.12193 19.98561,-8.0707 20.40232,-7.654 0.17916,0.17916 -0.0973,2.30009 -0.61423,4.71318 -0.70524,3.29179 -0.95815,6.69739 -1.01274,13.63744 -0.0851,10.82013 0.41387,10.2209 -6.18908,7.43248 z"
           id="path14" /><path
           id="path10"
           style="fill:#334458;stroke:none"
           d="M 233.34975 194.40268 C 210.3173 195.40103 189.57083 209.69871 180.96498 233.56479 C 180.13512 235.8662 179.14621 238.42533 178.76771 239.25033 C 176.84582 243.43938 175.40695 259.72305 176.42592 265.75033 C 179.83552 285.91833 186.63321 301.8296 198.17592 316.65854 C 200.14165 319.18391 202.12023 321.81283 202.5724 322.50033 C 203.77322 324.3261 212.48217 333.29067 214.34193 334.61557 C 215.21738 335.23924 218.02989 337.46408 220.59193 339.55893 C 231.35936 348.36285 245.14497 355.69896 260.43764 360.76401 C 264.32219 362.05059 267.50681 363.36083 267.51381 363.67612 C 267.64901 369.60101 267.66395 377.75557 267.59975 385.39682 C 267.59975 399.91211 267.61352 409.24438 267.13295 409.60971 C 266.7892 409.87103 265.43611 410.48078 264.12514 410.96518 C 255.21303 414.25818 258.48026 426.25619 268.2892 426.25619 C 275.26952 426.25619 281.32466 420.81789 282.75795 413.2601 C 283.04071 411.76912 283.48256 399.75618 283.48256 388.25033 L 283.75014 366.75033 L 294.00014 366.93393 C 299.8028 367.0386 304.52132 367.33763 304.87514 367.62143 C 305.35525 368.00654 305.50014 372.49901 305.50014 387.00033 C 305.50014 401.51563 305.35571 405.98657 304.87514 406.3519 C 304.53139 406.61322 303.1783 407.22492 301.86732 407.70932 C 292.95522 411.00232 296.22245 423.00033 306.03139 423.00033 C 313.01171 423.00033 319.06685 417.56008 320.50014 410.00229 C 320.7829 408.51131 321.00014 398.49837 321.00014 386.99252 C 321.00014 371.22773 321.14184 366.50429 321.62904 366.09994 C 321.97529 365.81258 325.18155 364.9745 328.75404 364.23862 C 363.25403 357.13204 392.7341 339.62026 410.9181 315.42807 C 416.60994 307.85558 417.45982 305.1035 415.37514 300.99447 C 413.51631 297.33065 410.55354 296.13364 405.3224 296.93393 C 403.08219 297.27666 399.67513 297.79504 397.75014 298.08432 C 389.71089 299.29239 371.19236 297.88006 361.00014 295.28158 C 348.72789 292.15281 331.42893 283.95561 324.00404 277.75229 C 322.84731 276.78587 321.64663 276.1549 321.32826 276.34604 C 321.01063 276.53674 319.62513 277.40838 318.25014 278.28158 C 314.29027 280.79631 304.86731 285.38041 300.62904 286.85385 C 294.66065 288.92877 284.08807 288.90636 279.82045 286.81088 C 266.78548 280.41048 267.70703 265.05015 281.86537 252.72885 C 287.70033 247.65096 297.56485 242.01029 300.62514 242.00229 C 301.87034 241.99885 301.74986 241.47787 299.44154 236.86362 C 292.05338 222.09486 279.11632 208.76622 265.24818 201.6351 C 254.76015 196.24206 243.81904 193.94888 233.34975 194.40268 z M 221.41029 220.33627 C 222.55979 220.31397 223.73558 220.37503 224.93568 220.52572 C 246.6078 223.24697 251.12084 253.81062 231.25014 263.29135 C 221.31029 268.03386 208.64259 264.33656 202.7267 254.96518 C 193.10071 239.71663 204.16781 220.67077 221.41029 220.33627 z M 222.08412 235.34799 C 214.27496 235.23018 211.02139 245.07141 217.44935 249.36557 C 219.58662 250.79336 223.61145 250.91524 225.58803 249.61166 C 232.13066 245.29672 229.715 235.46311 222.08412 235.34799 z M 166.42006 343.7601 C 160.71234 344.0697 155.11271 346.43674 151.01771 350.44369 C 147.59325 353.79452 145.83754 357.11069 141.59193 368.25033 C 139.91497 372.65033 135.93021 383.11284 132.73646 391.50033 C 129.35608 400.37794 126.81378 407.81685 126.65248 409.30307 C 125.93803 415.88591 130.90915 421.36723 138.61342 422.49057 C 142.82818 423.10515 208.43154 423.08387 210.65248 422.46713 C 217.35392 420.6062 218.69712 412.04541 212.84779 408.47885 C 211.30761 407.53972 210.08369 407.50429 178.91615 407.50229 C 161.13242 407.50126 146.22615 407.36257 145.79115 407.19565 C 143.85525 406.45277 145.9126 405.1189 160.37514 397.73666 C 187.33511 383.97523 190.0033 381.58131 191.28334 370.00033 C 191.54498 367.63324 190.52158 360.35576 189.83021 359.6644 C 189.72405 359.55823 185.95019 363.17689 181.4435 367.70541 C 173.72151 375.46478 173.08304 375.98707 170.33998 376.76596 C 164.35112 378.46652 159.45348 375.25672 158.29506 368.87338 C 157.73396 365.78148 159.21108 363.36091 165.23451 357.50033 C 178.79161 344.3098 178.24953 345.36195 172.11146 344.15268 C 170.23668 343.78333 168.32263 343.6569 166.42006 343.7601 z " /></g></g><g
       id="g71"
       transform="translate(-640)"><g
         id="g67"><rect
           style="font-variation-settings:normal;opacity:1;vector-effect:none;fill:#fa9474;fill-opacity:1;stroke:none;stroke-width:1;stroke-linecap:butt;stroke-linejoin:miter;stroke-miterlimit:4;stroke-dasharray:none;stroke-dashoffset:0;stroke-opacity:1;-inkscape-stroke:none;stop-color:#000000;stop-opacity:1"
           id="rect54"
           width="144"
           height="160"
           x="0"
           y="0"
           ry="16" /><rect
           style="font-variation-settings:normal;opacity:1;vector-effect:none;fill:#fa9474;fill-opacity:1;stroke:none;stroke-width:1;stroke-linecap:butt;stroke-linejoin:miter;stroke-miterlimit:4;stroke-dasharray:none;stroke-dashoffset:0;stroke-opacity:1;-inkscape-stroke:none;stop-color:#000000;stop-opacity:1"
           id="rect55"
           width="112"
           height="160"
           x="400"
           y="0"
           ry="16" /><rect
           style="font-variation-settings:normal;opacity:1;vector-effect:none;fill:#078cb7;fill-opacity:1;stroke:none;stroke-width:1;stroke-linecap:butt;stroke-linejoin:miter;stroke-miterlimit:4;stroke-dasharray:none;stroke-dashoffset:0;stroke-opacity:1;-inkscape-stroke:none;stop-color:#000000;stop-opacity:1"
           id="rect56"
           width="80"
           height="160"
           x="176"
           y="0"
           ry="16" /><rect
           style="font-variation-settings:normal;opacity:1;vector-effect:none;fill:#078cb7;fill-opacity:1;stroke:none;stroke-width:1;stroke-linecap:butt;stroke-linejoin:miter;stroke-miterlimit:4;stroke-dasharray:none;stroke-dashoffset:0;stroke-opacity:1;-inkscape-stroke:none"
           id="rect57"
           width="144"
           height="112"
           x="0"
           y="160"
           ry="16" /><rect
           style="font-variation-settings:normal;opacity:1;vector-effect:none;fill:#078cb7;fill-opacity:1;stroke:none;stroke-width:1;stroke-linecap:butt;stroke-linejoin:miter;stroke-miterlimit:4;stroke-dasharray:none;stroke-dashoffset:0;stroke-opacity:1;-inkscape-stroke:none"
           id="rect58"
           width="144"
           height="128"
           x="368"
           y="384"
           ry="16" /><rect
           style="font-variation-settings:normal;opacity:1;vector-effect:none;fill:#eab08d;fill-opacity:1;stroke:none;stroke-width:1;stroke-linecap:butt;stroke-linejoin:miter;stroke-miterlimit:4;stroke-dasharray:none;stroke-dashoffset:0;stroke-opacity:1;-inkscape-stroke:none;stop-color:#000000;stop-opacity:1"
           id="rect59"
           width="112"
           height="128"
           x="144"
           y="384"
           ry="16" /><rect
           style="font-variation-settings:normal;opacity:1;vector-effect:none;fill:#eab08d;fill-opacity:1;stroke:none;stroke-width:1;stroke-linecap:butt;stroke-linejoin:miter;stroke-miterlimit:4;stroke-dasharray:none;stroke-dashoffset:0;stroke-opacity:1;-inkscape-stroke:none;stop-color:#000000;stop-opacity:1"
           id="rect60"
           width="32"
           height="128"
           x="336"
           y="384"
           ry="16" /><rect
           style="font-variation-settings:normal;opacity:1;vector-effect:none;fill:#eab08d;fill-opacity:1;stroke:none;stroke-width:1;stroke-linecap:butt;stroke-linejoin:miter;stroke-miterlimit:4;stroke-dasharray:none;stroke-dashoffset:0;stroke-opacity:1;-inkscape-stroke:none;stop-color:#000000;stop-opacity:1"
           id="rect61"
           width="144"
           height="112"
           x="368"
           y="272"
           ry="16" /><rect
           style="font-variation-settings:normal;opacity:1;vector-effect:none;fill:#e2725b;fill-opacity:1;stroke:none;stroke-width:1;stroke-linecap:butt;stroke-linejoin:miter;stroke-miterlimit:4;stroke-dasharray:none;stroke-dashoffset:0;stroke-opacity:1;-inkscape-stroke:none;stop-color:#000000;stop-opacity:1"
           id="rect62"
           width="144"
           height="111.8075"
           x="368"
           y="160.1925"
           ry="16" /><rect
           style="font-variation-settings:normal;opacity:1;vector-effect:none;fill:#eab08d;fill-opacity:1;stroke:none;stroke-width:1;stroke-linecap:butt;stroke-linejoin:miter;stroke-miterlimit:4;stroke-dasharray:none;stroke-dashoffset:0;stroke-opacity:1;-inkscape-stroke:none"
           id="rect63"
           width="32"
           height="160"
           x="144"
           y="0"
           ry="16" /><rect
           style="font-variation-settings:normal;opacity:1;vector-effect:none;fill:#e2725b;fill-opacity:1;stroke:none;stroke-width:1;stroke-linecap:butt;stroke-linejoin:miter;stroke-miterlimit:4;stroke-dasharray:none;stroke-dashoffset:0;stroke-opacity:1;-inkscape-stroke:none;stop-color:#000000;stop-opacity:1"
           id="rect64"
           width="80"
           height="128"
           x="256"
           y="384"
           ry="16" /><rect
           style="font-variation-settings:normal;opacity:1;vector-effect:none;fill:#a5bca7;fill-opacity:1;stroke:none;stroke-width:1;stroke-linecap:butt;stroke-linejoin:miter;stroke-miterlimit:4;stroke-dasharray:none;stroke-dashoffset:0;stroke-opacity:1;-inkscape-stroke:none;stop-color:#000000;stop-opacity:1"
           id="rect65"
           width="144"
           height="128"
           x="0"
           y="384"
           ry="16" /><rect
           style="font-variation-settings:normal;opacity:1;vector-effect:none;fill:#5eccb4;fill-opacity:1;stroke:none;stroke-width:1;stroke-linecap:butt;stroke-linejoin:miter;stroke-miterlimit:4;stroke-dasharray:none;stroke-dashoffset:0;stroke-opacity:1;-inkscape-stroke:none;stop-color:#000000;stop-opacity:1"
           id="rect66"
           width="144"
           height="112"
           x="0"
           y="272"
           ry="16" /><rect
           style="font-variation-settings:normal;opacity:1;vector-effect:none;fill:#5eccb4;fill-opacity:1;stroke:none;stroke-width:1;stroke-linecap:butt;stroke-linejoin:miter;stroke-miterlimit:4;stroke-dasharray:none;stroke-dashoffset:0;stroke-opacity:1;-inkscape-stroke:none;stop-color:#000000;stop-opacity:1"
           id="rect67"
           width="144"
           height="160"
           x="256"
           y="0"
           ry="16" /></g><rect
         style="font-variation-settings:normal;opacity:1;vector-effect:none;fill:#000000;fill-opacity:0.164286;stroke:none;stroke-width:1;stroke-linecap:butt;stroke-linejoin:miter;stroke-miterlimit:4;stroke-dasharray:none;stroke-dashoffset:0;stroke-opacity:1;-inkscape-stroke:none;filter:url(#filter40);stop-color:#000000;stop-opacity:1"
         id="rect68"
         width="448"
         height="384"
         x="32"
         y="96"
         ry="64" /><rect
         style="font-variation-settings:normal;opacity:1;vector-effect:none;fill:#fbf5e0;fill-opacity:1;stroke:none;stroke-width:1;stroke-linecap:butt;stroke-linejoin:miter;stroke-miterlimit:4;stroke-dasharray:none;stroke-dashoffset:0;stroke-opacity:1;-inkscape-stroke:none;stop-color:#000000;stop-opacity:1"
         id="rect69"
         width="416"
         height="384"
         x="48"
         y="64"
         ry="64" /><g
         id="g70"
         transform="translate(-18.502089,-15.799162)"><path
           style="fill:#0e9cd0;stroke:none"
           d="m 165.09233,375.50529 c -6.89139,-1.63112 -7.31872,-9.8314 -0.805,-15.44748 C 166.2819,358.3381 179.04037,346 178.8241,346 c -0.065,0 5.04999,-5.15428 11.36661,-11.45396 l 11.48478,-11.45396 2.34444,2.93285 c 1.28944,1.61307 3.61245,4.13194 5.16225,5.59749 1.5498,1.46556 2.81654,2.88131 2.81498,3.14611 -0.002,0.26481 -8.95509,9.4276 -19.89672,20.36175 -22.12978,22.11465 -21.53952,21.66936 -27.00811,20.37501 z M 284,286.80641 c -10.62491,-2.35596 -14.9622,-12.13917 -9.90083,-22.33234 5.14831,-10.36829 20.59618,-21.09538 32.07221,-22.27114 3.62614,-0.37151 1.1623,1.67474 20.98268,-17.4264 5.72224,-5.51459 10.78474,-10.17947 11.25,-10.36639 0.46527,-0.18692 8.72094,-0.35651 18.34594,-0.37687 16.54619,-0.035 17.58882,-0.0912 19.12957,-1.03057 4.85831,-2.96215 4.83853,-9.58777 -0.0394,-13.20673 -1.28585,-0.95396 -2.18747,-1.05832 -10.25,-1.1864 -4.86208,-0.0772 -9.13863,-0.24553 -9.50344,-0.374 -0.39646,-0.13961 6.09722,-6.92235 16.14107,-16.85958 l 16.80437,-16.62599 -0.0161,-2.39106 c -0.0352,-5.24041 -3.03817,-8.37008 -8.00714,-8.34503 -3.61637,0.0182 -3.38378,-0.16946 -20.77154,16.76147 -7.89343,7.68604 -14.58403,13.97462 -14.86801,13.97462 -0.33696,0 -0.47991,-2.62824 -0.41151,-7.56604 0.11626,-8.39195 -0.23137,-9.89687 -2.85595,-12.36386 -3.41398,-3.20899 -9.14456,-2.40494 -12.19314,1.71079 -0.81837,1.10484 -0.91967,2.7586 -1.08078,17.64298 l -0.17778,16.42388 -15.34674,15.32612 C 301.079,228.13193 297.8589,231.09741 297.47584,230.5 c -0.26449,-0.4125 -0.98601,-1.5622 -1.60337,-2.55489 -4.77447,-7.67714 -13.23711,-16.26691 -22.80835,-23.15101 l -2.0242,-1.4559 3.55269,-3.94093 c 1.95399,-2.16752 8.78809,-9.28747 15.18689,-15.82213 46.50165,-47.48889 74.60652,-64.03419 106.88821,-62.92495 21.2044,0.72861 26.53491,7.08435 25.66384,30.59981 -1.27966,34.54558 -26.65874,68.37646 -83.14197,110.83014 -4.92795,3.70392 -10.75533,7.94025 -12.94974,9.41406 -2.19441,1.47382 -4.06484,2.86555 -4.15651,3.09273 -0.0917,0.22719 -0.38793,0.41307 -0.65836,0.41307 -0.27043,0 -1.20793,0.53852 -2.08333,1.19671 -1.62028,1.21824 -12.95649,7.05245 -16.59138,8.53879 -5.81475,2.37771 -13.52582,3.22937 -18.75026,2.07091 z M 169,265.43248 c -23.34987,-9.86064 -23,-9.68308 -23,-11.67282 0,-1.01787 1.85411,-3.25966 2.69596,-3.25966 0.20983,0 3.68283,-1.43848 7.71777,-3.19662 9.45984,-4.12193 19.98561,-8.0707 20.40232,-7.654 0.17916,0.17916 -0.0973,2.30009 -0.61423,4.71318 -0.70524,3.29179 -0.95815,6.69739 -1.01274,13.63744 -0.0851,10.82013 0.41387,10.2209 -6.18908,7.43248 z"
           id="path69" /><path
           style="fill:#334458;stroke:none"
           d="m 138.61395,422.49089 c -7.70427,-1.12334 -12.67636,-6.605 -11.96191,-13.18785 0.1613,-1.48622 2.70353,-8.92542 6.08392,-17.80304 3.19375,-8.3875 7.17888,-18.85 8.85584,-23.25 4.24561,-11.13966 6.00061,-14.45525 9.42508,-17.80608 5.46,-5.34261 13.59541,-7.76908 21.09455,-6.29167 6.13807,1.20927 6.68012,0.1572 -6.87699,13.34775 -6.02344,5.86058 -7.50082,8.28192 -6.93972,11.37382 1.15842,6.38335 6.05568,9.59196 12.04455,7.8914 2.74306,-0.77889 3.38274,-1.30081 11.10473,-9.06019 4.5067,-4.52853 8.28087,-8.14683 8.38703,-8.04066 0.69137,0.69136 1.71384,7.96853 1.4522,10.33563 -1.28004,11.58099 -3.94823,13.9754 -30.90823,27.73685 -14.46255,7.38225 -16.52001,8.71678 -14.58411,9.45966 0.435,0.16692 15.34125,0.30433 33.125,0.30536 31.16757,0.002 32.39176,0.037 33.93194,0.97613 5.84933,3.56656 4.50527,12.12742 -2.19618,13.98835 -2.22094,0.61674 -67.82293,0.63908 -72.0377,0.0245 z m 109.88281,0.0637 c -6.07411,-1.95295 -8.29692,-7.74424 -4.64032,-12.08986 2.32047,-2.75772 3.23946,-2.96398 13.24373,-2.97235 5.03241,-0.004 9.44712,-0.19615 9.81047,-0.42653 0.54339,-0.34454 0.93721,-28.70894 0.60243,-43.38907 -0.007,-0.31529 -3.19135,-1.62593 -7.07591,-2.91252 -15.29268,-5.06505 -29.078,-12.40148 -39.84544,-21.20541 -2.56205,-2.09485 -5.37455,-4.31909 -6.25,-4.94276 -1.85976,-1.3249 -10.56877,-10.29028 -11.76959,-12.11605 -0.45217,-0.6875 -2.43046,-3.31622 -4.39619,-5.8416 -11.54272,-14.82895 -18.34081,-30.74038 -21.75042,-50.9084 -1.01897,-6.02729 0.4202,-22.31095 2.3421,-26.5 0.3785,-0.825 1.36717,-3.38298 2.19703,-5.6844 12.51761,-34.71433 50.72253,-49.18778 84.28427,-31.93003 13.86815,7.13113 26.8049,20.45956 34.19307,35.22833 2.30832,4.61426 2.42822,5.13508 1.18301,5.13852 -3.06029,0.008 -12.92532,5.64934 -18.76029,10.72723 -14.15835,12.32131 -15.07999,27.68111 -2.04501,34.08152 4.26763,2.09548 14.84078,2.11672 20.80918,0.0418 4.23827,-1.47344 13.66125,-6.05746 17.62112,-8.57219 1.375,-0.8732 2.75988,-1.74366 3.07751,-1.93436 0.31837,-0.19114 1.51902,0.43989 2.67575,1.40631 7.4249,6.20333 24.72448,14.39952 36.99674,17.5283 10.19223,2.59848 28.71075,4.01078 36.75,2.80271 1.925,-0.28928 5.3329,-0.80636 7.57311,-1.14909 5.23114,-0.80029 8.19306,0.39599 10.05189,4.05982 2.08469,4.10903 1.23511,6.86032 -4.45673,14.43282 -18.18402,24.19222 -47.66371,41.70566 -82.16373,48.81224 -3.5725,0.73589 -6.77875,1.57309 -7.125,1.86045 -0.4872,0.40435 -0.62954,5.1282 -0.62954,20.89301 0,11.50586 -0.21785,21.51925 -0.50061,23.01023 C 319.06607,417.56106 313.01128,423 306.03095,423 c -9.80895,0 -13.07666,-11.99845 -4.16455,-15.29146 1.31098,-0.4844 2.66485,-1.09454 3.0086,-1.35586 0.48057,-0.36533 0.625,-4.83737 0.625,-19.35268 0,-14.50134 -0.14489,-18.99377 -0.625,-19.37888 -0.35382,-0.2838 -5.07233,-0.58155 -10.875,-0.68622 l -10.25,-0.1849 -0.26719,21.5 c -0.31338,25.21645 -0.20108,24.58396 -5.24751,29.55519 -4.57661,4.5084 -5.77621,4.83801 -18.2353,5.01044 -5.6375,0.078 -10.81396,-0.0395 -11.50324,-0.26108 z M 231.25,263.29129 c 19.87072,-9.48074 15.35844,-40.04493 -6.3137,-42.76618 -19.20168,-2.41105 -32.47639,18.17434 -22.20866,34.43947 5.9159,9.37139 18.5825,13.06923 28.52236,8.32671 z m -13.80106,-13.92626 c -6.42797,-4.29416 -3.17345,-14.13483 4.63572,-14.01702 7.63089,0.11512 10.04629,9.94782 3.50365,14.26277 -1.97658,1.30358 -6.0021,1.18204 -8.13937,-0.24575 z"
           id="path70" /></g></g></g></svg>
